<svg xmlns="http://www.w3.org/2000/svg"  viewBox="0 0 48 48" width="16px" height="16px"><path d="M 12.5 6 C 8.9280619 6 6 8.9280619 6 12.5 L 6 35.5 C 6 39.071938 8.9280619 42 12.5 42 L 35.5 42 C 39.071938 42 42 39.071938 42 35.5 L 42 12.5 C 42 8.9280619 39.071938 6 35.5 6 L 12.5 6 z M 12.5 9 L 35.5 9 C 37.450062 9 39 10.549938 39 12.5 L 39 35.5 C 39 37.450062 37.450062 39 35.5 39 L 12.5 39 C 10.549938 39 9 37.450062 9 35.5 L 9 12.5 C 9 10.549938 10.549938 9 12.5 9 z M 22.476562 11.978516 A 1.50015 1.50015 0 0 0 21 13.5 L 21 25.5 A 1.50015 1.50015 0 0 0 22.5 27 L 30.5 27 A 1.50015 1.50015 0 1 0 30.5 24 L 24 24 L 24 13.5 A 1.50015 1.50015 0 0 0 22.476562 11.978516 z"/></svg>