<svg xmlns="http://www.w3.org/2000/svg"  viewBox="0 0 64 64" width="16px" height="16px"><path d="M 14.068359 14.001953 C 11.979359 14.001953 10.350687 14.610078 9.1796875 15.830078 C 8.0086875 17.050078 7.421875 18.891562 7.421875 21.351562 L 7.421875 42.650391 C 7.421875 45.110391 8.047875 46.949922 9.296875 48.169922 C 10.546875 49.389922 12.409672 50 14.888672 50 L 49.931641 50 C 52.019641 50 53.649313 49.389922 54.820312 48.169922 C 55.991312 46.949922 56.576172 45.110391 56.576172 42.650391 L 56.576172 21.351562 C 56.576172 18.891562 55.952125 17.050078 54.703125 15.830078 C 53.453125 14.610078 51.588375 14.001953 49.109375 14.001953 L 14.068359 14.001953 z M 14.714844 17.984375 L 49.257812 17.984375 C 49.449591 17.984375 49.624828 18.004699 49.800781 18.023438 L 34.767578 32.908203 C 34.260578 33.396203 33.786656 33.758187 33.347656 33.992188 C 32.908656 34.226188 32.464625 34.34375 32.015625 34.34375 C 31.546625 34.34375 31.091344 34.226188 30.652344 33.992188 C 30.213344 33.758187 29.740422 33.396203 29.232422 32.908203 L 14.199219 18.021484 C 14.36677 18.004586 14.532723 17.984375 14.714844 17.984375 z M 11.478516 20.703125 L 22.90625 31.970703 L 11.482422 43.349609 C 11.454228 43.128488 11.435547 42.898798 11.435547 42.650391 L 11.435547 21.322266 C 11.435547 21.102958 11.455729 20.901248 11.478516 20.703125 z M 52.523438 20.724609 C 52.54651 20.925423 52.566406 21.128806 52.566406 21.351562 L 52.566406 42.679688 C 52.566406 42.925254 52.548606 43.154043 52.519531 43.373047 L 41.095703 31.972656 L 52.523438 20.724609 z M 38.378906 34.646484 L 49.740234 45.984375 C 49.582365 45.999161 49.428169 46.017578 49.257812 46.017578 L 14.714844 46.017578 C 14.562924 46.017578 14.426915 45.998068 14.285156 45.986328 L 25.634766 34.660156 L 27.007812 36.013672 C 27.846812 36.833672 28.676094 37.427828 29.496094 37.798828 C 30.316094 38.169828 31.156625 38.355469 32.015625 38.355469 C 32.874625 38.355469 33.708531 38.169828 34.519531 37.798828 C 35.329531 37.427828 36.153188 36.831719 36.992188 36.011719 L 38.378906 34.646484 z"/></svg>