<svg xmlns="http://www.w3.org/2000/svg"  viewBox="0 0 64 64" width="16px" height="16px"><path d="M51.007,38.598c1.415,0.953,2.077,2.679,1.647,4.295c-1.213,4.563-4.43,6.527-6.193,7.392	C45,51,42.803,50.937,42.547,50.912c-4.108-0.4-14.584-2.433-23.083-12.632c-7.615-9.137-8.673-16.731-8.626-20.444	c0.027-2.07,0.814-3.99,2.217-5.407c1.331-1.345,3.085-2.512,4.321-3.254c1.785-1.073,4.058-0.606,5.285,1.084l5.951,8.182	c1.164,1.603,0.993,3.781-0.405,5.181l-1.755,1.754c-0.38,0.38-0.392,0.991-0.028,1.386l8.112,8.786	c0.361,0.391,0.966,0.431,1.375,0.09l2.606-2.172c1.409-1.176,3.428-1.244,4.909-0.165C44.736,34.255,47.466,36.212,51.007,38.598z M42.936,46.931c2.064,0.069,4.749-1.997,5.6-4.27c0.167-0.446,0.014-0.953-0.383-1.215c-2.822-1.869-5.08-3.466-6.459-4.459	c-0.371-0.267-0.869-0.245-1.22,0.048l-2.733,2.284c-1.638,1.366-4.054,1.208-5.501-0.36l-9.406-10.19	c-1.457-1.578-1.407-4.025,0.111-5.543l1.828-1.827c0.348-0.348,0.391-0.897,0.102-1.295l-4.901-6.738	c-0.312-0.429-0.901-0.545-1.346-0.257C17.724,13.693,15,16,14.838,17.887c-0.152,1.764,0.264,4.595,1.714,8.169	c1.139,2.808,2.996,6.078,5.984,9.664c2.687,3.224,5.586,5.528,8.37,7.175C35.945,45.877,40.595,46.852,42.936,46.931z"/></svg>