<svg xmlns="http://www.w3.org/2000/svg"  viewBox="0 0 48 48" width="16px" height="16px"><path fill="none" stroke="#000" stroke-linecap="round" stroke-linejoin="round" stroke-width="3" d="M10.5,29.2V18.5c0-6.1,4.9-11,11-11h3c4.4,0,8.3,2.6,10,6.4"/><path fill="none" stroke="#000" stroke-linecap="round" stroke-linejoin="round" stroke-width="3" d="M35.5,29.5v11c0,1.7-1.3,3-3,3h-19c-1.7,0-3-1.3-3-3v-5.2"/><path fill="none" stroke="#000" stroke-linejoin="round" stroke-width="3" d="M38.5,29.5c0.7,0,1.3-0.3,1.7-0.9c0.6-0.9,1.3-2.3,1.3-4.1s-0.7-3.2-1.3-4.1c-0.4-0.6-1-0.9-1.7-0.9H20.5	c-0.7,0-1.3,0.3-1.7,0.9c-0.6,0.9-1.3,2.3-1.3,4.1s0.7,3.2,1.3,4.1c0.4,0.6,1,0.9,1.7,0.9L38.5,29.5z"/><path fill="none" stroke="#000" stroke-linecap="round" stroke-linejoin="round" stroke-width="3" d="M17.5,43.5v-3c0-2.8,2.2-5,5-5h13"/><line x1="29.5" x2="29.5" y1="39.5" y2="35.5" fill="none" stroke="#000" stroke-linecap="round" stroke-linejoin="round" stroke-width="3"/><line x1="23.5" x2="23.5" y1="39.5" y2="35.7" fill="none" stroke="#000" stroke-linecap="round" stroke-linejoin="round" stroke-width="3"/><circle cx="24.5" cy="24.5" r="1.8"/><circle cx="34.5" cy="24.5" r="1.8"/><line x1="23.5" x2="23.5" y1="1.5" y2="7.5" fill="none" stroke="#000" stroke-linecap="round" stroke-linejoin="round" stroke-width="3"/></svg>