<svg xmlns="http://www.w3.org/2000/svg"  viewBox="0 0 48 48" width="16px" height="16px"><path d="M 31.423828 3.3046875 C 30.928047 3.3033281 30.348672 3.3376875 29.638672 3.3984375 L 19.818359 4.1210938 C 19.213359 4.1660937 18.744141 4.6713438 18.744141 5.2773438 L 18.744141 5.28125 C 18.744141 5.95425 19.315328 6.4855 19.986328 6.4375 L 30.736328 5.6542969 C 32.618328 5.4912969 33.600891 6.14675 34.337891 6.71875 L 38.183594 9.4980469 C 38.347594 9.5790469 38.757625 10.070312 38.265625 10.070312 L 15.103516 11.460938 C 12.646516 11.624937 12.155656 11.705578 10.847656 10.642578 L 7.65625 8.1054688 C 7.33025 7.7774687 7.4945 7.3681094 8.3125 7.2871094 L 14.861328 6.8105469 C 15.467328 6.7665469 15.935547 6.2622969 15.935547 5.6542969 C 15.935547 4.9812969 15.363406 4.45 14.691406 4.5 L 6.515625 5.1015625 C 4.649625 5.2625625 4 6.4795 4 7.9375 L 4 33.230469 C 4 34.366469 4.4049062 35.338719 5.3789062 36.636719 L 10.814453 43.689453 C 11.706453 44.824453 12.519609 45.067328 14.224609 44.986328 L 41.078125 43.363281 C 43.350125 43.202281 44 42.148234 44 40.365234 L 44 36.115234 C 44 35.286234 43.328 34.615234 42.5 34.615234 C 41.672 34.615234 41 35.287234 41 36.115234 L 41 38.507812 C 41 39.560812 40.836047 40.453203 39.373047 40.533203 L 14.111328 41.992188 C 12.648328 42.072187 12 41.585062 12 40.289062 L 12 16.164062 C 12 15.112063 12.326781 14.625922 13.300781 14.544922 L 39.699219 13.007812 C 40.593219 12.926813 41 13.493922 41 14.544922 L 41 30.306641 C 41 31.134641 41.672 31.806641 42.5 31.806641 C 43.328 31.806641 44 31.134641 44 30.306641 L 44 11.910156 C 44 10.937156 43.594953 10.694734 42.376953 9.8027344 L 34.994141 4.6152344 C 33.656141 3.6432344 32.911172 3.3087656 31.423828 3.3046875 z M 37.441406 16.724609 L 31.720703 17.058594 C 30.892703 17.139594 30.230484 17.800891 30.396484 18.712891 L 32.550781 18.960938 L 32.550781 30.384766 L 24.099609 17.470703 L 17.96875 17.882812 C 16.80775 17.966812 16.393547 19.041109 16.560547 19.787109 L 18.632812 19.953125 L 18.632812 36.261719 L 17.140625 36.675781 C 16.561625 36.840781 16.394547 37.669 16.560547 38 L 22.275391 37.669922 C 24.349391 37.669922 24.349609 36.179688 24.349609 36.179688 L 21.779297 35.599609 L 21.779297 23.265625 L 29.900391 36.013672 C 30.893391 37.254672 31.226734 37.669922 32.552734 37.669922 C 33.380734 37.669922 34.373172 37.338766 35.451172 36.759766 L 35.451172 18.546875 L 36.693359 18.298828 C 37.440359 18.214828 37.607406 17.470609 37.441406 16.724609 z"/></svg>