<svg xmlns="http://www.w3.org/2000/svg"  viewBox="0 0 48 48" width="16px" height="16px"><path d="M 26.267578 5.2207031 A 1.50015 1.50015 0 1 0 26.267578 8.2207031 L 28.261719 8.2207031 L 24.640625 11.839844 A 1.50015 1.50015 0 0 0 25.701172 14.400391 L 31.882812 14.400391 A 1.50015 1.50015 0 1 0 31.882812 11.400391 L 29.322266 11.400391 L 32.943359 7.78125 A 1.50015 1.50015 0 0 0 31.882812 5.2207031 L 26.267578 5.2207031 z M 3.4765625 10.978516 A 1.50015 1.50015 0 0 0 2 12.5 L 2 31.5 L 2 38.5 L 2 41.5 A 1.50015 1.50015 0 1 0 5 41.5 L 5 40 L 9.6171875 40 A 1.50015 1.50015 0 1 0 9.6171875 37 L 5 37 L 5 33 L 16.5 33 L 37 33 L 42.5 33 C 42.795045 33 43 33.204955 43 33.5 L 43 37 L 15.298828 37 A 1.50015 1.50015 0 1 0 15.298828 40 L 43 40 L 43 41.5 A 1.50015 1.50015 0 1 0 46 41.5 L 46 38.5 L 46 33.5 C 46 31.585045 44.414955 30 42.5 30 L 42.072266 30 C 42.608497 29.102808 43 28.113933 43 27 C 43 23.704135 40.295865 21 37 21 L 33.169922 21 A 1.50015 1.50015 0 1 0 33.169922 24 L 37 24 C 38.674135 24 40 25.325865 40 27 C 40 28.674135 38.674135 30 37 30 L 18 30 L 18 27 C 18 25.325865 19.325865 24 21 24 L 27.361328 24 A 1.50015 1.50015 0 1 0 27.361328 21 L 21 21 C 19.314138 21 17.784921 21.709479 16.691406 22.841797 C 16.666963 22.813075 16.646256 22.782214 16.621094 22.753906 C 15.679518 21.694633 14.208333 21 12.5 21 C 10.791667 21 9.3204818 21.694633 8.3789062 22.753906 C 7.4373309 23.813179 7 25.166667 7 26.5 C 7 27.733488 7.380091 28.980916 8.1816406 30 L 5 30 L 5 12.5 A 1.50015 1.50015 0 0 0 3.4765625 10.978516 z M 18 11.148438 A 1.50015 1.50015 0 0 0 17.435547 14.044922 L 16.640625 14.839844 A 1.50015 1.50015 0 0 0 17.701172 17.400391 L 20.955078 17.400391 A 1.50015 1.50015 0 0 0 21.289062 14.435547 L 22.015625 13.708984 A 1.50015 1.50015 0 0 0 20.955078 11.148438 L 18 11.148438 z M 12.5 24 C 13.458333 24 13.987149 24.305367 14.378906 24.746094 C 14.770664 25.186821 15 25.833333 15 26.5 C 15 27.166667 14.770664 27.813179 14.378906 28.253906 C 13.987149 28.694633 13.458333 29 12.5 29 C 11.541667 29 11.012851 28.694633 10.621094 28.253906 C 10.229336 27.813179 10 27.166667 10 26.5 C 10 25.833333 10.229336 25.186821 10.621094 24.746094 C 11.012851 24.305367 11.541667 24 12.5 24 z"/></svg>