<svg xmlns="http://www.w3.org/2000/svg"  viewBox="0 0 64 64" width="16px" height="16px"><path d="M 32 9 C 19.869 9 10 18.645 10 30.5 C 10 36.773 12.754797 42.632516 17.591797 46.728516 L 17.591797 50.980469 C 17.591797 51.399469 17.831141 52.381156 18.494141 52.785156 C 19.225141 53.230156 20.35175 52.826672 20.71875 52.638672 C 21.19575 52.395672 24.605469 50.742188 24.605469 50.742188 C 26.988469 51.577188 29.472 52 32 52 C 44.131 52 54 42.355 54 30.5 C 54 18.645 44.131 9 32 9 z M 32 13 C 41.925 13 50 20.851 50 30.5 C 50 40.149 41.925 48 32 48 C 28.756 48 25.863516 46.968031 25.228516 46.707031 C 24.593516 46.446031 23.997328 46.584437 23.611328 46.773438 C 23.350328 46.900438 22.519813 47.308547 22.007812 47.560547 C 21.762812 47.681547 21.597656 47.518922 21.597656 47.294922 C 21.597656 46.831922 21.591797 46.154391 21.591797 45.775391 C 21.591797 45.213391 21.303453 44.571359 20.814453 44.193359 C 16.483453 40.844359 14 35.854 14 30.5 C 14 20.851 22.075 13 32 13 z M 44.367188 23.832031 C 43.879187 23.832031 43.324531 24.258688 42.644531 24.804688 C 41.963531 25.351687 39.106125 27.501797 38.328125 28.091797 C 37.612125 28.633797 36.576703 29.416016 35.970703 29.416016 C 35.364703 29.416016 34.554391 28.876062 34.150391 28.539062 C 33.613391 28.091062 31.554484 26.554672 30.646484 25.888672 C 29.737484 25.221672 29.216922 24.740234 27.794922 24.740234 C 26.038922 24.740234 25.229719 26.384125 24.761719 27.078125 C 24.337719 27.708125 20.657891 33.664359 19.962891 34.693359 C 19.135891 35.918359 18.568359 36.67375 18.568359 37.21875 C 18.568359 37.76375 19.113297 38.126953 19.779297 38.126953 C 20.445297 38.126953 21.129359 37.426906 21.943359 36.753906 C 22.757359 36.080906 25.644094 33.936078 26.371094 33.330078 C 27.097094 32.724078 27.557531 32.427734 28.019531 32.427734 C 28.481531 32.427734 28.720797 32.594031 29.341797 33.082031 C 30.020797 33.617031 32.000734 35.108984 33.177734 35.958984 C 34.281734 36.755984 34.718312 37.15625 36.070312 37.15625 C 37.422313 37.15625 38.940281 35.5295 39.488281 34.5625 C 40.107281 33.4705 43.746547 27.714672 44.185547 27.013672 C 44.624547 26.312672 45.337891 25.471141 45.337891 24.744141 C 45.337891 24.137141 44.864187 23.832031 44.367188 23.832031 z"/></svg>