<svg xmlns="http://www.w3.org/2000/svg"  viewBox="0 0 64 64" width="16px" height="16px"><path d="M 32 9 C 19.317 9 9 19.318 9 32 C 9 44.682 19.317 55 32 55 C 44.683 55 55 44.682 55 32 C 55 19.318 44.683 9 32 9 z M 32 13 C 42.477 13 51 21.523 51 32 C 51 42.477 42.477 51 32 51 C 21.523 51 13 42.477 13 32 C 13 21.523 21.523 13 32 13 z M 28.857422 23.445312 C 24.712422 23.445312 21.183563 24.056156 19.976562 24.535156 C 18.655563 25.059156 18.919563 26.859125 19.351562 27.328125 C 19.783563 27.797125 20.338109 28.027234 21.162109 27.865234 C 21.986109 27.703234 25.241422 26.941406 28.857422 26.941406 C 32.473422 26.941406 37.704906 27.5025 42.628906 30.1875 C 43.829906 30.8425 44.727219 29.853687 44.949219 28.929688 C 45.108219 28.266688 44.923313 27.486844 43.945312 26.839844 C 42.968313 26.192844 36.447422 23.445312 28.857422 23.445312 z M 28.720703 29.474609 C 24.978703 29.474609 22.417172 30.186188 21.326172 30.617188 C 20.133172 31.090188 20.371719 32.490063 20.761719 32.914062 C 21.151719 33.338062 21.652484 33.374516 22.396484 33.228516 C 23.140484 33.082516 25.45375 32.482422 28.71875 32.482422 C 31.98375 32.482422 35.916281 33.186328 40.363281 35.611328 C 41.448281 36.203328 42.257984 35.437516 42.458984 34.603516 C 42.603984 34.004516 42.437688 33.441422 41.554688 32.857422 C 40.671687 32.273422 35.574703 29.474609 28.720703 29.474609 z M 28.712891 35.394531 C 25.635891 35.394531 22.915484 35.960406 22.021484 36.316406 C 21.040484 36.706406 21.235641 37.8395 21.556641 38.1875 C 21.876641 38.5355 22.289391 38.705937 22.900391 38.585938 C 23.511391 38.464938 26.030844 37.849609 28.714844 37.849609 C 31.398844 37.849609 34.858781 38.349781 38.425781 40.300781 C 39.490781 40.883781 40.212859 40.456484 40.380859 39.771484 C 40.548859 39.086484 40.401781 38.549359 39.675781 38.068359 C 38.949781 37.587359 34.347891 35.394531 28.712891 35.394531 z"/></svg>